Coordinates
nRows=7
nColumns=38

# SIMM Motion File Header:
name Coordinates
datacolumns 38
datarows 7
otherdata 1
range 0.72250000000000003000 0.72850000000000004000

Units are S.I. units (second, meters, Newtons, ...)
Angles are in degrees.

endheader
time	pelvis_tilt	pelvis_list	pelvis_rotation	pelvis_tx	pelvis_ty	pelvis_tz	hip_flexion_r	hip_adduction_r	hip_rotation_r	knee_angle_r	ankle_angle_r	subtalar_angle_r	mtp_angle_r	hip_flexion_l	hip_adduction_l	hip_rotation_l	knee_angle_l	ankle_angle_l	subtalar_angle_l	mtp_angle_l	lumbar_extension	lumbar_bending	lumbar_rotation	arm_flex_r	arm_add_r	arm_rot_r	elbow_flex_r	pro_sup_r	wrist_flex_r	wrist_dev_r	arm_flex_l	arm_add_l	arm_rot_l	elbow_flex_l	pro_sup_l	wrist_flex_l	wrist_dev_l
      0.72250000000000003000	     -3.17754553225460070000	      3.15184392064308570000	     -0.92099325137345600000	      1.12713486048072520000	      0.95667319848102705000	     -0.43020922556122010000	     42.44454386538382800000	      3.38152131005857950000	      4.12919183424726200000	   -115.31093104328995000000	     10.41000983172010000000	     -0.00000000000007313050	      0.00000000000027123784	      0.79769044785502063000	     12.13674887354600100000	      6.20170839700764190000	    -33.22589205398334400000	     22.52363875954038600000	      0.00000000000000551655	      0.00000000000007785882	    -17.11207420303916400000	     -3.90546241963896930000	    -11.42461722854011300000	    -37.93504122234553200000	    -17.04159616066800700000	     -7.12504068603142930000	    106.74418489001930000000	     94.88381765686210700000	     -0.00000000000000099739	     -0.00000000000001534815	    -11.01659314712139600000	    -15.47858850262598600000	    -13.88982226890743900000	    127.83695650611934000000	     96.03407784854363200000	     -0.00000000000000180405	     -0.00000000000002101413
      0.72350000000000003000	     -3.27453911026878770000	      2.97824380104720940000	     -0.97799514051028569000	      1.12751576115461270000	      0.95711074426495035000	     -0.43023090676159248000	     42.86301795810746300000	      3.60187617120966810000	      4.08376811935919370000	   -114.88617549938999000000	     10.52445265290187000000	     -0.00000000000007331777	      0.00000000000027205055	      0.34436368054796979000	     11.93073377962877000000	      6.30813487338150300000	    -32.77978647262910500000	     22.21742542447539400000	      0.00000000000000579300	      0.00000000000007837007	    -16.94359075709687100000	     -3.69103566086646050000	    -11.42618663246027700000	    -38.30500326367910400000	    -17.06415795336008400000	     -7.27055451947438320000	    107.02754352351640000000	     95.01149753686057400000	     -0.00000000000000099586	     -0.00000000000001537115	    -10.86366617366657800000	    -15.36268063465959000000	    -13.77387950202444200000	    128.04078326469866000000	     95.98572799978464300000	     -0.00000000000000178426	     -0.00000000000002097833
      0.72450000000000003000	     -3.37275584813282590000	      2.80162153540959480000	     -1.03360693500261850000	      1.12790378040377990000	      0.95755270602918352000	     -0.43025240988405561000	     43.27600596860402500000	      3.82237682223216520000	      4.03204035830551980000	   -114.45157155406623000000	     10.63744926523582800000	     -0.00000000000007349662	      0.00000000000027286222	     -0.10769116469220702000	     11.71966657376429300000	      6.41173113080427280000	    -32.33023190437504000000	     21.89824515662828800000	      0.00000000000000608155	      0.00000000000007886585	    -16.77368521172639500000	     -3.47255243992882210000	    -11.42612310273483600000	    -38.67765725995170100000	    -17.08465730948809400000	     -7.41888783416397320000	    107.31127242012131000000	     95.13608094213772400000	     -0.00000000000000099494	     -0.00000000000001539570	    -10.71131851076940000000	    -15.24720632345597000000	    -13.65168583535532000000	    128.24198793320951000000	     95.93376427151980600000	     -0.00000000000000176308	     -0.00000000000002093027
      0.72550000000000003000	     -3.47216257445858200000	      2.62199829330642410000	     -1.08778573935165080000	      1.12829870556000560000	      0.95799889128040638000	     -0.43027374275362296000	     43.68344551750929100000	      4.04294908439495960000	      3.97409318448717790000	   -114.00719171175179000000	     10.74889500565842600000	     -0.00000000000007366448	      0.00000000000027367707	     -0.55827513231093573000	     11.50360126791161400000	      6.51244067353442180000	    -31.87763587018442000000	     21.56614042182982900000	      0.00000000000000637159	      0.00000000000007933566	    -16.60242204078677700000	     -3.25002972712946250000	    -11.42459951686812400000	    -39.05288110430446800000	    -17.10310649186787300000	     -7.56990324646440270000	    107.59529958265827000000	     95.25727309606222100000	     -0.00000000000000099429	     -0.00000000000001542039	    -10.55962647846491900000	    -15.13224061299546400000	    -13.52340469974050100000	    128.44053741036819000000	     95.87846783462822500000	     -0.00000000000000174247	     -0.00000000000002086308
      0.72650000000000003000	     -3.57272075387080120000	      2.43940533143592030000	     -1.14048965946078670000	      1.12870031569292720000	      0.95844911549503609000	     -0.43029491675228054000	     44.08527112768550900000	      4.26351504213540440000	      3.91002709302199940000	   -113.55311011818439000000	     10.85868118366304100000	     -0.00000000000007383032	      0.00000000000027448966	     -1.00719112010047730000	     11.28260558778628600000	      6.61021051914779360000	    -31.42241324412213600000	     21.22115958758676900000	      0.00000000000000662464	      0.00000000000007986797	    -16.42987067757330900000	     -3.02349681521949650000	    -11.42179421310479300000	    -39.43054624036990000000	    -17.11952383032285900000	     -7.72345984561661240000	    107.87955677958783000000	     95.37479419599141300000	     -0.00000000000000099321	     -0.00000000000001544533	    -10.40866737663659000000	    -15.01785922711675700000	    -13.38921089969090500000	    128.63640799016085000000	     95.82012719254660700000	     -0.00000000000000172198	     -0.00000000000002078074
      0.72750000000000004000	     -3.67438642064704580000	      2.25388472784303670000	     -1.19167770456489830000	      1.12910838150708570000	      0.95890320278802366000	     -0.43031594750843977000	     44.48141410194887900000	      4.48399239309400240000	      3.83995863026879910000	   -113.08940271143302000000	     10.96669606785512800000	     -0.00000000000007400504	      0.00000000000027530022	     -1.45424457604036130000	     11.05676173326241400000	      6.70499161950316850000	    -30.96498461765388700000	     20.86335678848233900000	      0.00000000000000686495	      0.00000000000008041971	    -16.25610560592446400000	     -2.79299613905675590000	    -11.41789063262515700000	    -39.81051791159588800000	    -17.13393320365746000000	     -7.87941372993344840000	    108.16397913217163000000	     95.48838034092850100000	     -0.00000000000000099226	     -0.00000000000001546965	    -10.25851885678137700000	    -14.90413882139734100000	    -13.24928958103286400000	    128.82958481708806000000	     95.75903697786867500000	     -0.00000000000000170210	     -0.00000000000002070150
      0.72850000000000004000	     -3.77711021348196100000	      2.06549013261769640000	     -1.24130970067950820000	      1.12952266519278190000	      0.95936098634136313000	     -0.43033685560420398000	     44.87180253487919400000	      4.70429379216002540000	      3.76402060644108040000	   -112.61614738900903000000	     11.07282585368094800000	     -0.00000000000007417670	      0.00000000000027611074	     -1.89924406460460670000	     10.82616715045166700000	      6.79673926110258190000	    -30.50577469837012100000	     20.49279179868146300000	      0.00000000000000714232	      0.00000000000008102686	    -16.08120633387603600000	     -2.55858411279291880000	    -11.41307694718022100000	    -40.19265540880090300000	    -17.14636352413901600000	     -8.03761854245496110000	    108.44850468839240000000	     95.59778446291592500000	     -0.00000000000000099140	     -0.00000000000001549355	    -10.10925832301973600000	    -14.79115722664490200000	    -13.10383520018619500000	    129.02006134090823000000	     95.69549675396575600000	     -0.00000000000000168323	     -0.00000000000002062038
